<svg width="131" height="155" viewBox="0 0 131 155" fill="none" xmlns="http://www.w3.org/2000/svg">
<g filter="url(#filter0_d_23_103)">
<mask id="path-1-outside-1_23_103" maskUnits="userSpaceOnUse" x="4" y="0" width="123" height="147" fill="black">
<rect fill="white" x="4" width="123" height="147"/>
<path d="M68.5283 3H69.5695L76.243 3.23122L78.3728 3.60118L79.982 3.97114L82.4431 4.7573L84.8096 5.54346L87.3654 6.79206L90.6785 8.45687L94.7961 11.2316L98.8665 14.4224L101.754 17.3358L103.741 19.6943L105.067 21.3129L107.054 24.4575L108.664 27.2322L110.368 30.978L111.598 33.7527L112.403 36.1112L112.876 37.3598L113.255 38.9321L113.681 40.227L114.391 42.9554L115.526 47.8111L116.662 54.8865L118.082 64.5517L119.029 72.0433L119.549 76.9452L119.691 78.2863L119.833 79.5812L120.07 80.6448L120.307 81.6622L120.449 83.0033L120.638 84.1594V85.3618L120.78 86.4716L120.922 87.5353L121.206 88.6451L121.348 89.57L121.632 90.1712V90.7261L121.821 91.6973L122.058 93.1771V94.6569L122.247 96.4142L122.484 101.455L122.72 102.981L122.957 104.276V105.524L123.194 106.264L123.336 106.912V108.022V115.513V117.317V118.75L123.194 120.045L122.957 121.248L122.72 122.311L122.484 123.19L122.153 124.3L121.253 126.473L120.78 127.861L120.307 129.155L119.691 130.358L118.839 131.56L117.846 132.67L117.136 133.965L116.094 135.167L115.479 136L114.674 136.74L113.302 137.664L112.403 138.451L111.077 139.144L109.989 139.884L109.09 140.439L107.528 140.67L105.54 140.902L103.031 140.439H101.561L100.181 140.249L99.4477 140.115H98.3266L97.5936 139.884H97.1193L96.4294 139.645L95.6481 139.514L94.8771 139.386L94.1009 139.144L93.4972 138.912L92.5055 138.783L91.6251 138.636L90.8205 139.144L90.0159 139.514L89.3059 140.115L88.6433 140.439L88.17 140.902L86.8921 141.41L84.9043 142.428L83.863 143.26L82.6325 143.769L80.9759 144H78.9881H77.2842H76.0339L74.6541 143.769L73.2312 143.224L72.1532 142.983L70.8596 142.428L69.8629 141.827L69.0583 141.272L68.2064 140.532L67.1178 139.653L66.289 139.257L65.556 139.052H64.7798H63.8743L62.3755 139.144L61.5235 139.653L60.5296 140.115L58.7784 140.67L57.4059 141.133L55.56 141.549H54.1875H52.7202H50.8744H49.2179L47.798 141.133L46.2834 140.67L45.2895 140.439L43.8696 139.653L42.6596 138.826L41.9697 138.438L41.5817 138.266L41.0299 137.942L40.4174 137.664L40.1587 137.403L39.8569 137.187L39.326 136.713L38.8527 136.323L38.3477 135.894L37.7872 135.583H36.7229L35.545 136.323L34.3564 137.664L33.5991 138.266L32.5697 139.144L30.3706 140.115L28.2147 140.439L27.0505 140.67H26.0156L24.3226 141.133H22.8554H20.6782H19.069L17.6018 140.67L16.3712 140.439L15.188 139.884L13.9101 139.376L12.9635 138.728L11.449 137.942L10.6444 136.971L9.69778 136L8.94051 135.075L8.18324 133.872L7.52062 132.624L7 130.589V128.786V126.797V125.086V123.699V122.635L7.52062 121.386L8.18324 119.583L8.94051 117.548L9.69778 115.745L10.3604 111.305L11.449 104.415L12.1589 99.0039L12.7269 96.183V94.0558V92.021L13.1528 87.0266V84.4831V82.9108L13.5788 79.8586L14.0521 76.8527L14.5727 72.8757L14.9987 67.9738L15.4246 65.0141L16.0873 62.0544L16.6079 59.2798L17.1758 56.1814L17.6965 53.6842L18.3591 51.3257L19.1163 48.6897L19.8736 46.0075L20.7255 43.6953L21.3882 41.6605L22.0508 39.857L22.808 37.961L23.66 36.4811L24.2279 35.0938L25.1745 33.5215L26.0738 32.0417L27.0204 30.2381L28.1089 28.6658L29.0082 27.4634L29.8601 26.2148L31.1853 24.5963L32.1319 23.5326L32.8892 22.469L33.8831 21.5441L34.9717 20.573L36.0603 19.5093L37.2435 18.3532L39.0894 16.9659L40.4619 15.5786L42.6391 14.0062L44.2009 12.8039L45.7155 11.7402L47.5613 10.3529L49.5018 9.33552L51.9156 8.08691L54.0928 7.02329L56.128 6.09839L58.1631 5.31223L59.7723 4.66481L61.4762 4.10987L64.0793 3.60118L65.6412 3.23122L67.1557 3H68.5283Z"/>
</mask>
<path d="M68.5283 3H69.5695L76.243 3.23122L78.3728 3.60118L79.982 3.97114L82.4431 4.7573L84.8096 5.54346L87.3654 6.79206L90.6785 8.45687L94.7961 11.2316L98.8665 14.4224L101.754 17.3358L103.741 19.6943L105.067 21.3129L107.054 24.4575L108.664 27.2322L110.368 30.978L111.598 33.7527L112.403 36.1112L112.876 37.3598L113.255 38.9321L113.681 40.227L114.391 42.9554L115.526 47.8111L116.662 54.8865L118.082 64.5517L119.029 72.0433L119.549 76.9452L119.691 78.2863L119.833 79.5812L120.07 80.6448L120.307 81.6622L120.449 83.0033L120.638 84.1594V85.3618L120.78 86.4716L120.922 87.5353L121.206 88.6451L121.348 89.57L121.632 90.1712V90.7261L121.821 91.6973L122.058 93.1771V94.6569L122.247 96.4142L122.484 101.455L122.72 102.981L122.957 104.276V105.524L123.194 106.264L123.336 106.912V108.022V115.513V117.317V118.75L123.194 120.045L122.957 121.248L122.72 122.311L122.484 123.19L122.153 124.3L121.253 126.473L120.78 127.861L120.307 129.155L119.691 130.358L118.839 131.56L117.846 132.67L117.136 133.965L116.094 135.167L115.479 136L114.674 136.74L113.302 137.664L112.403 138.451L111.077 139.144L109.989 139.884L109.09 140.439L107.528 140.67L105.54 140.902L103.031 140.439H101.561L100.181 140.249L99.4477 140.115H98.3266L97.5936 139.884H97.1193L96.4294 139.645L95.6481 139.514L94.8771 139.386L94.1009 139.144L93.4972 138.912L92.5055 138.783L91.6251 138.636L90.8205 139.144L90.0159 139.514L89.3059 140.115L88.6433 140.439L88.17 140.902L86.8921 141.41L84.9043 142.428L83.863 143.26L82.6325 143.769L80.9759 144H78.9881H77.2842H76.0339L74.6541 143.769L73.2312 143.224L72.1532 142.983L70.8596 142.428L69.8629 141.827L69.0583 141.272L68.2064 140.532L67.1178 139.653L66.289 139.257L65.556 139.052H64.7798H63.8743L62.3755 139.144L61.5235 139.653L60.5296 140.115L58.7784 140.67L57.4059 141.133L55.56 141.549H54.1875H52.7202H50.8744H49.2179L47.798 141.133L46.2834 140.67L45.2895 140.439L43.8696 139.653L42.6596 138.826L41.9697 138.438L41.5817 138.266L41.0299 137.942L40.4174 137.664L40.1587 137.403L39.8569 137.187L39.326 136.713L38.8527 136.323L38.3477 135.894L37.7872 135.583H36.7229L35.545 136.323L34.3564 137.664L33.5991 138.266L32.5697 139.144L30.3706 140.115L28.2147 140.439L27.0505 140.67H26.0156L24.3226 141.133H22.8554H20.6782H19.069L17.6018 140.67L16.3712 140.439L15.188 139.884L13.9101 139.376L12.9635 138.728L11.449 137.942L10.6444 136.971L9.69778 136L8.94051 135.075L8.18324 133.872L7.52062 132.624L7 130.589V128.786V126.797V125.086V123.699V122.635L7.52062 121.386L8.18324 119.583L8.94051 117.548L9.69778 115.745L10.3604 111.305L11.449 104.415L12.1589 99.0039L12.7269 96.183V94.0558V92.021L13.1528 87.0266V84.4831V82.9108L13.5788 79.8586L14.0521 76.8527L14.5727 72.8757L14.9987 67.9738L15.4246 65.0141L16.0873 62.0544L16.6079 59.2798L17.1758 56.1814L17.6965 53.6842L18.3591 51.3257L19.1163 48.6897L19.8736 46.0075L20.7255 43.6953L21.3882 41.6605L22.0508 39.857L22.808 37.961L23.66 36.4811L24.2279 35.0938L25.1745 33.5215L26.0738 32.0417L27.0204 30.2381L28.1089 28.6658L29.0082 27.4634L29.8601 26.2148L31.1853 24.5963L32.1319 23.5326L32.8892 22.469L33.8831 21.5441L34.9717 20.573L36.0603 19.5093L37.2435 18.3532L39.0894 16.9659L40.4619 15.5786L42.6391 14.0062L44.2009 12.8039L45.7155 11.7402L47.5613 10.3529L49.5018 9.33552L51.9156 8.08691L54.0928 7.02329L56.128 6.09839L58.1631 5.31223L59.7723 4.66481L61.4762 4.10987L64.0793 3.60118L65.6412 3.23122L67.1557 3H68.5283Z" fill="#F4F4F4"/>
<path d="M68.5283 3H69.5695L76.243 3.23122L78.3728 3.60118L79.982 3.97114L82.4431 4.7573L84.8096 5.54346L87.3654 6.79206L90.6785 8.45687L94.7961 11.2316L98.8665 14.4224L101.754 17.3358L103.741 19.6943L105.067 21.3129L107.054 24.4575L108.664 27.2322L110.368 30.978L111.598 33.7527L112.403 36.1112L112.876 37.3598L113.255 38.9321L113.681 40.227L114.391 42.9554L115.526 47.8111L116.662 54.8865L118.082 64.5517L119.029 72.0433L119.549 76.9452L119.691 78.2863L119.833 79.5812L120.07 80.6448L120.307 81.6622L120.449 83.0033L120.638 84.1594V85.3618L120.78 86.4716L120.922 87.5353L121.206 88.6451L121.348 89.57L121.632 90.1712V90.7261L121.821 91.6973L122.058 93.1771V94.6569L122.247 96.4142L122.484 101.455L122.72 102.981L122.957 104.276V105.524L123.194 106.264L123.336 106.912V108.022V115.513V117.317V118.75L123.194 120.045L122.957 121.248L122.72 122.311L122.484 123.19L122.153 124.3L121.253 126.473L120.78 127.861L120.307 129.155L119.691 130.358L118.839 131.56L117.846 132.67L117.136 133.965L116.094 135.167L115.479 136L114.674 136.74L113.302 137.664L112.403 138.451L111.077 139.144L109.989 139.884L109.09 140.439L107.528 140.67L105.54 140.902L103.031 140.439H101.561L100.181 140.249L99.4477 140.115H98.3266L97.5936 139.884H97.1193L96.4294 139.645L95.6481 139.514L94.8771 139.386L94.1009 139.144L93.4972 138.912L92.5055 138.783L91.6251 138.636L90.8205 139.144L90.0159 139.514L89.3059 140.115L88.6433 140.439L88.17 140.902L86.8921 141.41L84.9043 142.428L83.863 143.26L82.6325 143.769L80.9759 144H78.9881H77.2842H76.0339L74.6541 143.769L73.2312 143.224L72.1532 142.983L70.8596 142.428L69.8629 141.827L69.0583 141.272L68.2064 140.532L67.1178 139.653L66.289 139.257L65.556 139.052H64.7798H63.8743L62.3755 139.144L61.5235 139.653L60.5296 140.115L58.7784 140.67L57.4059 141.133L55.56 141.549H54.1875H52.7202H50.8744H49.2179L47.798 141.133L46.2834 140.67L45.2895 140.439L43.8696 139.653L42.6596 138.826L41.9697 138.438L41.5817 138.266L41.0299 137.942L40.4174 137.664L40.1587 137.403L39.8569 137.187L39.326 136.713L38.8527 136.323L38.3477 135.894L37.7872 135.583H36.7229L35.545 136.323L34.3564 137.664L33.5991 138.266L32.5697 139.144L30.3706 140.115L28.2147 140.439L27.0505 140.67H26.0156L24.3226 141.133H22.8554H20.6782H19.069L17.6018 140.67L16.3712 140.439L15.188 139.884L13.9101 139.376L12.9635 138.728L11.449 137.942L10.6444 136.971L9.69778 136L8.94051 135.075L8.18324 133.872L7.52062 132.624L7 130.589V128.786V126.797V125.086V123.699V122.635L7.52062 121.386L8.18324 119.583L8.94051 117.548L9.69778 115.745L10.3604 111.305L11.449 104.415L12.1589 99.0039L12.7269 96.183V94.0558V92.021L13.1528 87.0266V84.4831V82.9108L13.5788 79.8586L14.0521 76.8527L14.5727 72.8757L14.9987 67.9738L15.4246 65.0141L16.0873 62.0544L16.6079 59.2798L17.1758 56.1814L17.6965 53.6842L18.3591 51.3257L19.1163 48.6897L19.8736 46.0075L20.7255 43.6953L21.3882 41.6605L22.0508 39.857L22.808 37.961L23.66 36.4811L24.2279 35.0938L25.1745 33.5215L26.0738 32.0417L27.0204 30.2381L28.1089 28.6658L29.0082 27.4634L29.8601 26.2148L31.1853 24.5963L32.1319 23.5326L32.8892 22.469L33.8831 21.5441L34.9717 20.573L36.0603 19.5093L37.2435 18.3532L39.0894 16.9659L40.4619 15.5786L42.6391 14.0062L44.2009 12.8039L45.7155 11.7402L47.5613 10.3529L49.5018 9.33552L51.9156 8.08691L54.0928 7.02329L56.128 6.09839L58.1631 5.31223L59.7723 4.66481L61.4762 4.10987L64.0793 3.60118L65.6412 3.23122L67.1557 3H68.5283Z" stroke="black" stroke-width="6" mask="url(#path-1-outside-1_23_103)"/>
</g>
<g filter="url(#filter1_d_23_103)">
<mask id="path-2-outside-2_23_103" maskUnits="userSpaceOnUse" x="9.1743" y="4.5708" width="112" height="138" fill="black">
<rect fill="white" x="9.1743" y="4.5708" width="112" height="138"/>
<path d="M68.2293 7.5708H69.178L75.2578 7.7864L77.1982 8.13135L78.6642 8.47631L80.9064 9.20933L83.0624 9.94236L85.3908 11.1066L88.4092 12.6589L92.1605 15.246L95.8688 18.2213L98.4991 20.9378L100.31 23.1369L101.517 24.646L103.328 27.5781L104.794 30.1653L106.347 33.658L107.468 36.2451L108.201 38.4442L108.632 39.6084L108.977 41.0745L109.365 42.2818L110.012 44.8258L111.047 49.3534L112.082 55.9506L113.375 64.9625L114.238 71.9479L114.712 76.5185L114.841 77.769L114.971 78.9763L115.186 79.968L115.402 80.9167L115.531 82.1671L115.704 83.2451V84.3662L115.833 85.4011L115.962 86.3928L116.221 87.4277L116.35 88.2901L116.609 88.8506V89.368L116.782 90.2736L116.997 91.6534V93.0332L117.17 94.6717L117.385 99.3717L117.601 100.795L117.816 102.002V103.166L118.032 103.856L118.161 104.46V105.495V112.48V114.162V115.498L118.032 116.706L117.816 117.827L117.601 118.819L117.385 119.638L117.083 120.673L116.264 122.699L115.833 123.993L115.402 125.2L114.841 126.321L114.065 127.442L113.16 128.477L112.513 129.685L111.564 130.806L111.004 131.582L110.271 132.272L109.02 133.134L108.201 133.867L106.994 134.514L106.002 135.204L105.183 135.721L103.76 135.937L101.949 136.152L99.6633 135.721L97.9385 135.419L97.0761 135.204L95.9119 134.859L94.877 134.04L94.4027 133.695L93.7559 133.393L92.9367 132.962L92.333 132.832H91.8587H91.4706L90.867 133.134L90.0908 133.565L89.2715 134.04L88.5385 134.514L87.8055 134.859L87.1587 135.419L86.555 135.721L86.1238 136.152L84.9596 136.627L83.1486 137.575L82.2 138.352L81.0789 138.826L79.5697 139.041H77.7587H76.2064L74.9128 138.61L73.7055 138.093L72.6275 137.575L71.5926 137.015L70.4715 136.368L69.911 135.721L69.178 135.204L68.4018 134.514L67.4101 133.695L66.5046 133.134L65.9871 132.832H64.9523L64.133 133.393L62.6238 134.514L61.8477 134.988L60.9422 135.419L59.3468 135.937L58.0963 136.368L56.4147 136.756H55.1642H53.8275H52.1459H50.6367L49.3431 136.368L47.9633 135.937L47.0578 135.721L45.7642 134.988L44.6862 134.126L43.9963 133.695L43.1771 132.832L42.1853 131.884L41.6248 131.194L41.1936 130.719L39.9431 129.21L39.2532 128.908H38.5633L37.7871 129.21L37.0972 129.598L36.4073 130.288L35.8037 130.719L35.0706 131.582L34.5532 132.272L33.8633 132.832L33.0871 133.695L32.3972 134.126L31.578 134.73L30.5431 135.204L29.8532 135.721L28.7752 135.937L27.956 136.368H26.6193H24.6358H23.1697L21.833 135.937L20.7119 135.721L19.6339 135.204L18.4697 134.73L17.6073 134.126L16.2275 133.393L15.4945 132.487L14.6321 131.582L13.9422 130.719L13.2523 129.598L12.6486 128.434L12.1743 126.537V124.855V123.001V121.406V120.112V119.12L12.6486 117.956L13.2523 116.274L13.9422 114.377L14.6321 112.696L15.2358 108.556L16.2275 102.131L16.8743 97.0864L17.3917 94.4561V92.4726V90.5754L17.7798 85.9185V83.547V82.0809L18.1679 79.235L18.5991 76.4323L19.0734 72.724L19.4615 68.1534L19.8495 65.3937L20.4532 62.6341L20.9275 60.0469L21.4449 57.158L21.9193 54.8295L22.5229 52.6304L23.2128 50.1726L23.9027 47.6717L24.6789 45.5158L25.2826 43.6185L25.8862 41.9369L26.5761 40.169L27.3523 38.7892L27.8697 37.4956L28.7321 36.0295L29.5514 34.6497L30.4137 32.968L31.4055 31.502L32.2248 30.3809L33.0009 29.2167L34.2082 27.7075L35.0706 26.7158L35.7605 25.724L36.666 24.8616L37.6578 23.9561L38.6495 22.9644L39.7275 21.8864L41.4092 20.5928L42.6596 19.2992L44.6431 17.8332L46.066 16.7121L47.4459 15.7203L49.1275 14.4268L50.8954 13.4781L53.0945 12.3139L55.078 11.3222L56.9321 10.4598L58.7862 9.72676L60.2523 9.12309L61.8046 8.60566L64.1761 8.13135L65.5991 7.7864L66.9789 7.5708H68.2293Z"/>
</mask>
<path d="M68.2293 7.5708H69.178L75.2578 7.7864L77.1982 8.13135L78.6642 8.47631L80.9064 9.20933L83.0624 9.94236L85.3908 11.1066L88.4092 12.6589L92.1605 15.246L95.8688 18.2213L98.4991 20.9378L100.31 23.1369L101.517 24.646L103.328 27.5781L104.794 30.1653L106.347 33.658L107.468 36.2451L108.201 38.4442L108.632 39.6084L108.977 41.0745L109.365 42.2818L110.012 44.8258L111.047 49.3534L112.082 55.9506L113.375 64.9625L114.238 71.9479L114.712 76.5185L114.841 77.769L114.971 78.9763L115.186 79.968L115.402 80.9167L115.531 82.1671L115.704 83.2451V84.3662L115.833 85.4011L115.962 86.3928L116.221 87.4277L116.35 88.2901L116.609 88.8506V89.368L116.782 90.2736L116.997 91.6534V93.0332L117.17 94.6717L117.385 99.3717L117.601 100.795L117.816 102.002V103.166L118.032 103.856L118.161 104.46V105.495V112.48V114.162V115.498L118.032 116.706L117.816 117.827L117.601 118.819L117.385 119.638L117.083 120.673L116.264 122.699L115.833 123.993L115.402 125.2L114.841 126.321L114.065 127.442L113.16 128.477L112.513 129.685L111.564 130.806L111.004 131.582L110.271 132.272L109.02 133.134L108.201 133.867L106.994 134.514L106.002 135.204L105.183 135.721L103.76 135.937L101.949 136.152L99.6633 135.721L97.9385 135.419L97.0761 135.204L95.9119 134.859L94.877 134.04L94.4027 133.695L93.7559 133.393L92.9367 132.962L92.333 132.832H91.8587H91.4706L90.867 133.134L90.0908 133.565L89.2715 134.04L88.5385 134.514L87.8055 134.859L87.1587 135.419L86.555 135.721L86.1238 136.152L84.9596 136.627L83.1486 137.575L82.2 138.352L81.0789 138.826L79.5697 139.041H77.7587H76.2064L74.9128 138.61L73.7055 138.093L72.6275 137.575L71.5926 137.015L70.4715 136.368L69.911 135.721L69.178 135.204L68.4018 134.514L67.4101 133.695L66.5046 133.134L65.9871 132.832H64.9523L64.133 133.393L62.6238 134.514L61.8477 134.988L60.9422 135.419L59.3468 135.937L58.0963 136.368L56.4147 136.756H55.1642H53.8275H52.1459H50.6367L49.3431 136.368L47.9633 135.937L47.0578 135.721L45.7642 134.988L44.6862 134.126L43.9963 133.695L43.1771 132.832L42.1853 131.884L41.6248 131.194L41.1936 130.719L39.9431 129.21L39.2532 128.908H38.5633L37.7871 129.21L37.0972 129.598L36.4073 130.288L35.8037 130.719L35.0706 131.582L34.5532 132.272L33.8633 132.832L33.0871 133.695L32.3972 134.126L31.578 134.73L30.5431 135.204L29.8532 135.721L28.7752 135.937L27.956 136.368H26.6193H24.6358H23.1697L21.833 135.937L20.7119 135.721L19.6339 135.204L18.4697 134.73L17.6073 134.126L16.2275 133.393L15.4945 132.487L14.6321 131.582L13.9422 130.719L13.2523 129.598L12.6486 128.434L12.1743 126.537V124.855V123.001V121.406V120.112V119.12L12.6486 117.956L13.2523 116.274L13.9422 114.377L14.6321 112.696L15.2358 108.556L16.2275 102.131L16.8743 97.0864L17.3917 94.4561V92.4726V90.5754L17.7798 85.9185V83.547V82.0809L18.1679 79.235L18.5991 76.4323L19.0734 72.724L19.4615 68.1534L19.8495 65.3937L20.4532 62.6341L20.9275 60.0469L21.4449 57.158L21.9193 54.8295L22.5229 52.6304L23.2128 50.1726L23.9027 47.6717L24.6789 45.5158L25.2826 43.6185L25.8862 41.9369L26.5761 40.169L27.3523 38.7892L27.8697 37.4956L28.7321 36.0295L29.5514 34.6497L30.4137 32.968L31.4055 31.502L32.2248 30.3809L33.0009 29.2167L34.2082 27.7075L35.0706 26.7158L35.7605 25.724L36.666 24.8616L37.6578 23.9561L38.6495 22.9644L39.7275 21.8864L41.4092 20.5928L42.6596 19.2992L44.6431 17.8332L46.066 16.7121L47.4459 15.7203L49.1275 14.4268L50.8954 13.4781L53.0945 12.3139L55.078 11.3222L56.9321 10.4598L58.7862 9.72676L60.2523 9.12309L61.8046 8.60566L64.1761 8.13135L65.5991 7.7864L66.9789 7.5708H68.2293Z" fill="#EEBBC3"/>
<path d="M68.2293 7.5708H69.178L75.2578 7.7864L77.1982 8.13135L78.6642 8.47631L80.9064 9.20933L83.0624 9.94236L85.3908 11.1066L88.4092 12.6589L92.1605 15.246L95.8688 18.2213L98.4991 20.9378L100.31 23.1369L101.517 24.646L103.328 27.5781L104.794 30.1653L106.347 33.658L107.468 36.2451L108.201 38.4442L108.632 39.6084L108.977 41.0745L109.365 42.2818L110.012 44.8258L111.047 49.3534L112.082 55.9506L113.375 64.9625L114.238 71.9479L114.712 76.5185L114.841 77.769L114.971 78.9763L115.186 79.968L115.402 80.9167L115.531 82.1671L115.704 83.2451V84.3662L115.833 85.4011L115.962 86.3928L116.221 87.4277L116.35 88.2901L116.609 88.8506V89.368L116.782 90.2736L116.997 91.6534V93.0332L117.17 94.6717L117.385 99.3717L117.601 100.795L117.816 102.002V103.166L118.032 103.856L118.161 104.46V105.495V112.48V114.162V115.498L118.032 116.706L117.816 117.827L117.601 118.819L117.385 119.638L117.083 120.673L116.264 122.699L115.833 123.993L115.402 125.2L114.841 126.321L114.065 127.442L113.16 128.477L112.513 129.685L111.564 130.806L111.004 131.582L110.271 132.272L109.02 133.134L108.201 133.867L106.994 134.514L106.002 135.204L105.183 135.721L103.76 135.937L101.949 136.152L99.6633 135.721L97.9385 135.419L97.0761 135.204L95.9119 134.859L94.877 134.04L94.4027 133.695L93.7559 133.393L92.9367 132.962L92.333 132.832H91.8587H91.4706L90.867 133.134L90.0908 133.565L89.2715 134.04L88.5385 134.514L87.8055 134.859L87.1587 135.419L86.555 135.721L86.1238 136.152L84.9596 136.627L83.1486 137.575L82.2 138.352L81.0789 138.826L79.5697 139.041H77.7587H76.2064L74.9128 138.61L73.7055 138.093L72.6275 137.575L71.5926 137.015L70.4715 136.368L69.911 135.721L69.178 135.204L68.4018 134.514L67.4101 133.695L66.5046 133.134L65.9871 132.832H64.9523L64.133 133.393L62.6238 134.514L61.8477 134.988L60.9422 135.419L59.3468 135.937L58.0963 136.368L56.4147 136.756H55.1642H53.8275H52.1459H50.6367L49.3431 136.368L47.9633 135.937L47.0578 135.721L45.7642 134.988L44.6862 134.126L43.9963 133.695L43.1771 132.832L42.1853 131.884L41.6248 131.194L41.1936 130.719L39.9431 129.21L39.2532 128.908H38.5633L37.7871 129.21L37.0972 129.598L36.4073 130.288L35.8037 130.719L35.0706 131.582L34.5532 132.272L33.8633 132.832L33.0871 133.695L32.3972 134.126L31.578 134.73L30.5431 135.204L29.8532 135.721L28.7752 135.937L27.956 136.368H26.6193H24.6358H23.1697L21.833 135.937L20.7119 135.721L19.6339 135.204L18.4697 134.73L17.6073 134.126L16.2275 133.393L15.4945 132.487L14.6321 131.582L13.9422 130.719L13.2523 129.598L12.6486 128.434L12.1743 126.537V124.855V123.001V121.406V120.112V119.12L12.6486 117.956L13.2523 116.274L13.9422 114.377L14.6321 112.696L15.2358 108.556L16.2275 102.131L16.8743 97.0864L17.3917 94.4561V92.4726V90.5754L17.7798 85.9185V83.547V82.0809L18.1679 79.235L18.5991 76.4323L19.0734 72.724L19.4615 68.1534L19.8495 65.3937L20.4532 62.6341L20.9275 60.0469L21.4449 57.158L21.9193 54.8295L22.5229 52.6304L23.2128 50.1726L23.9027 47.6717L24.6789 45.5158L25.2826 43.6185L25.8862 41.9369L26.5761 40.169L27.3523 38.7892L27.8697 37.4956L28.7321 36.0295L29.5514 34.6497L30.4137 32.968L31.4055 31.502L32.2248 30.3809L33.0009 29.2167L34.2082 27.7075L35.0706 26.7158L35.7605 25.724L36.666 24.8616L37.6578 23.9561L38.6495 22.9644L39.7275 21.8864L41.4092 20.5928L42.6596 19.2992L44.6431 17.8332L46.066 16.7121L47.4459 15.7203L49.1275 14.4268L50.8954 13.4781L53.0945 12.3139L55.078 11.3222L56.9321 10.4598L58.7862 9.72676L60.2523 9.12309L61.8046 8.60566L64.1761 8.13135L65.5991 7.7864L66.9789 7.5708H68.2293Z" stroke="black" stroke-width="6" mask="url(#path-2-outside-2_23_103)"/>
</g>
<path d="M55.5523 44.2221V42.9285L55.6816 41.9799L55.8541 41.0312L56.544 39.5221L57.2771 38.7459L58.7431 38.0991H60.2954H61.6321L62.3651 38.2716L62.7532 38.5303L63.1844 38.8321L63.9174 39.5221L64.6936 41.0312L64.8661 41.9799L64.9092 42.9285V44.2221" stroke="black" stroke-width="8"/>
<path d="M85.3908 44.2221V42.9285L85.5202 41.9799L85.6927 41.0312L86.3826 39.5221L87.1156 38.7459L88.5817 38.0991H90.134H91.4706L92.2037 38.2716L92.5917 38.5303L93.0229 38.8321L93.756 39.5221L94.5321 41.0312L94.7046 41.9799L94.7477 42.9285V44.2221" stroke="black" stroke-width="8"/>
<path d="M23.1266 73.1551L22.1349 68.1532L21.1585 58.1064V59.6587L18.7284 71.3441L17.4349 84.4092L16.745 96.3101L15.7532 103.382L14.8908 108.556L14.5027 110.841L13.0367 115.757L12.3899 117.525L12.0018 119.25V120.974V122.828V124.51V125.804L12.3899 127.097L12.778 128.477L13.4679 129.9L14.0716 131.021L15.1927 132.099L17.2193 133.867L18.5128 134.6L20.0651 135.29L21.5312 135.85L23.3422 136.239H26.5761H28.0422L28.7321 135.85L29.8963 135.678L31.6642 134.6L33.5183 133.263L34.2083 132.487L35.0275 131.711L35.6312 131.021L36.6229 130.073L37.2266 129.383L38.5202 128.908H39.5119L40.1587 129.383L40.6761 130.073L41.6679 131.409L43.2633 132.962L44.5138 133.867L45.5917 134.816L46.5835 135.29L47.2734 135.678L48.7394 136.239L49.645 136.454L51.0679 136.713H52.4908H54.4743H55.4661H56.5009L57.5789 136.454L58.6569 136.239L59.9505 135.678L60.9422 135.29L61.8477 134.816L62.7532 134.6L63.8312 133.867L64.6073 133.091L65.0816 132.962H65.4266H66.1596L66.7202 133.263L67.4532 133.651L68.6605 134.6L69.4367 135.29L70.7303 136.239L71.6789 136.972L72.8 137.661L73.7917 138.05L74.6972 138.438L75.9046 138.869L76.9394 139.041L78.1037 138.869H79.2248H80.1734L81.467 138.567L82.8037 137.791L83.4936 137.187L84.2697 136.713L85.4339 136.239L86.3826 135.678L87.0294 135.29L87.9349 134.816L88.711 134.341L89.6165 133.651L90.1771 133.263L91.1688 132.962H91.9018H92.5486L93.2385 133.091L94.2734 133.651L95.222 134.212L96.0413 134.6L97.6798 135.074L99.7927 135.678L101.431 136.023H102.682L104.665 135.678L105.786 135.29L107.425 134.341L108.589 133.651L110.055 132.66L111.176 131.582L112.211 130.202L113.763 128.046L114.841 126.752L115.79 124.769L116.997 121.319L117.773 118.689L118.334 116.447V114.506V112.911V111.186V107.909L118.032 108.34L117.213 110.626L116.566 112.695L115.79 114.506L114.324 117.395L113.246 118.387L111.564 119.681H109.624H106.562L103.717 118.387L101.259 117.395L99.2321 116.619H97.4642H95.7826L93.2385 117.395L91.3844 118.387L89.6165 119.681L86.6413 120.845L82.2431 121.75H78.7936L74.7835 120.845L72.0238 119.681L69.7816 118.387L68.0138 117.395L66.1596 116.619H64.3917L61.3303 117.395L58.0963 118.387H55.078H52.3183L49.9899 117.395L45.1605 114.679L40.1587 110.453L36.0624 105.624L33.0872 100.536L29.6807 93.7661L27.0073 86.522L25.067 80.1404L23.989 76.1303L23.1266 73.1551Z" fill="#D6A8B0" fill-opacity="0.6"/>
<path d="M60.2523 60.7193C61.6535 60.7193 62.9431 60.3173 63.8954 59.6421C64.8465 58.9676 65.4954 57.9898 65.4954 56.856C65.4954 55.7222 64.8465 54.7443 63.8954 54.0699C62.9431 53.3946 61.6535 52.9927 60.2523 52.9927C58.8511 52.9927 57.5615 53.3946 56.6092 54.0699C55.658 54.7443 55.0092 55.7222 55.0092 56.856C55.0092 57.9898 55.658 58.9676 56.6092 59.6421C57.5615 60.3173 58.8511 60.7193 60.2523 60.7193Z" fill="#EA52A9" stroke="black"/>
<path d="M94.3289 51.2611C92.9219 51.4588 91.6723 51.9834 90.7912 52.6978C89.919 53.4051 89.3397 54.3642 89.4863 55.4075C89.633 56.4508 90.4542 57.2131 91.4876 57.6526C92.5314 58.0965 93.8772 58.2562 95.2842 58.0585C96.6912 57.8608 97.9408 57.3362 98.8218 56.6218C99.6941 55.9145 100.273 54.9554 100.127 53.9121C99.9801 52.8688 99.1589 52.1065 98.1255 51.667C97.0817 51.2231 95.7358 51.0634 94.3289 51.2611Z" fill="#EA52A9" stroke="black"/>
<path d="M71.2477 50.4743L72.1101 51.2936L73.2312 51.5523L74.3954 51.811L75.5596 51.5523L76.2927 51.0349L76.8963 50.4743L77.4569 49.8706L78.1037 49.4395L79.0954 50.1725L79.9578 50.7762L80.9064 51.0349L81.8982 51.2936L82.8037 51.0349L83.7523 50.7762L84.356 50.1725L84.7009 49.8706" stroke="black" stroke-width="4"/>
<defs>
<filter id="filter0_d_23_103" x="0" y="0" width="130.336" height="155" filterUnits="userSpaceOnUse" color-interpolation-filters="sRGB">
<feFlood flood-opacity="0" result="BackgroundImageFix"/>
<feColorMatrix in="SourceAlpha" type="matrix" values="0 0 0 0 0 0 0 0 0 0 0 0 0 0 0 0 0 0 127 0" result="hardAlpha"/>
<feOffset dy="4"/>
<feGaussianBlur stdDeviation="2"/>
<feComposite in2="hardAlpha" operator="out"/>
<feColorMatrix type="matrix" values="0 0 0 0 0 0 0 0 0 0 0 0 0 0 0 0 0 0 0.25 0"/>
<feBlend mode="normal" in2="BackgroundImageFix" result="effect1_dropShadow_23_103"/>
<feBlend mode="normal" in="SourceGraphic" in2="effect1_dropShadow_23_103" result="shape"/>
</filter>
<filter id="filter1_d_23_103" x="5.1743" y="4.5708" width="119.987" height="145.471" filterUnits="userSpaceOnUse" color-interpolation-filters="sRGB">
<feFlood flood-opacity="0" result="BackgroundImageFix"/>
<feColorMatrix in="SourceAlpha" type="matrix" values="0 0 0 0 0 0 0 0 0 0 0 0 0 0 0 0 0 0 127 0" result="hardAlpha"/>
<feOffset dy="4"/>
<feGaussianBlur stdDeviation="2"/>
<feComposite in2="hardAlpha" operator="out"/>
<feColorMatrix type="matrix" values="0 0 0 0 0 0 0 0 0 0 0 0 0 0 0 0 0 0 0.25 0"/>
<feBlend mode="normal" in2="BackgroundImageFix" result="effect1_dropShadow_23_103"/>
<feBlend mode="normal" in="SourceGraphic" in2="effect1_dropShadow_23_103" result="shape"/>
</filter>
</defs>
</svg>
