<svg width="1363" height="1649" viewBox="0 0 1363 1649" fill="none" xmlns="http://www.w3.org/2000/svg">
<g filter="url(#filter0_d_78_140)">
<mask id="path-1-outside-1_78_140" maskUnits="userSpaceOnUse" x="4" y="0" width="1355" height="1642" fill="black">
<rect fill="white" x="4" width="1355" height="1642"/>
<path d="M720.466 3H732.54L809.924 5.68121L834.621 9.97114L853.281 14.2611L881.819 23.3772L909.26 32.4933L938.897 46.9718L977.314 66.2765L1025.06 98.451L1072.26 135.452L1105.74 169.235L1128.79 196.583L1144.16 215.352L1167.21 251.816L1185.87 283.991L1205.62 327.426L1219.89 359.601L1229.22 386.949L1234.71 401.427L1239.1 419.66L1244.04 434.674L1252.27 466.313L1265.44 522.618L1278.62 604.663L1295.08 716.737L1306.06 803.608L1312.09 860.45L1313.74 876.001L1315.39 891.016L1318.13 903.349L1320.88 915.147L1322.52 930.698L1324.72 944.104V958.046L1326.36 970.916L1328.01 983.249L1331.3 996.119L1332.95 1006.84L1336.24 1013.82V1020.25L1338.44 1031.51L1341.18 1048.67V1065.83L1343.38 1086.21L1346.12 1144.66L1348.87 1162.35L1351.61 1177.37V1191.85L1354.35 1200.43L1356 1207.93V1220.8V1307.68V1328.59V1345.21L1354.35 1360.23L1351.61 1374.17L1348.87 1386.5L1346.12 1396.69L1342.28 1409.56L1331.85 1434.76L1326.36 1450.85L1320.88 1465.87L1313.74 1479.81L1303.86 1493.75L1292.34 1506.62L1284.1 1521.64L1272.03 1535.58L1264.9 1545.23L1255.57 1553.81L1239.65 1564.54L1229.22 1573.65L1213.86 1581.69L1201.23 1590.27L1190.81 1596.71L1172.69 1599.39L1149.64 1602.07L1120.56 1596.71H1103.5L1087.5 1594.5L1079 1592.96H1066L1057.5 1590.27H1052L1044 1587.5L1034.94 1585.98L1026 1584.5L1017 1581.69L1010 1579L998.5 1577.5L988.291 1575.8L978.961 1581.69L969.631 1585.98L961.398 1592.96L953.715 1596.71L948.227 1602.07L933.409 1607.97L910.358 1619.77L898.284 1629.42L884.015 1635.32L864.806 1638H841.755H821.998H807.5L791.5 1635.32L775 1629L762.5 1626.2L747.5 1619.77L735.943 1612.8L726.613 1606.36L716.734 1597.78L704.111 1587.59L694.5 1583L686 1580.62H677H666.5L649.12 1581.69L639.241 1587.59L627.716 1592.96L607.409 1599.39L591.494 1604.75L570.09 1609.58H554.174H537.16H515.756H496.548L480.083 1604.75L462.521 1599.39L450.996 1596.71L434.531 1587.59L420.5 1578L412.5 1573.5L408 1571.51L401.602 1567.75L394.5 1564.54L391.5 1561.5L388 1559L381.844 1553.5L376.356 1548.98L370.5 1544L364 1540.4H351.659L338 1548.98L324.218 1564.54L315.437 1571.51L303.5 1581.69L278 1592.96L253 1596.71L239.5 1599.39H227.5L207.868 1604.75H190.855H165.609H146.949L129.936 1599.39L115.666 1596.71L101.946 1590.27L87.1277 1584.38L76.1513 1576.87L58.5891 1567.75L49.2592 1556.49L38.2828 1545.23L29.5016 1534.51L20.7205 1520.56L13.037 1506.08L7 1482.49V1461.58V1438.52V1418.68V1402.59V1390.26L13.037 1375.78L20.7205 1354.86L29.5016 1331.27L38.2828 1310.36L45.9662 1258.88L58.5891 1178.98L66.8214 1116.24L73.4072 1083.53V1058.86V1035.26L78.3466 977.351V947.857V929.625L83.286 894.233L88.7742 859.378L94.8112 813.261L99.7506 756.419L104.69 722.1L112.373 687.78L118.41 655.606L124.996 619.678L131.033 590.721L138.717 563.372L147.498 532.807L156.279 501.704L166.158 474.892L173.841 451.298L181.525 430.384L190.306 408.398L200.185 391.239L206.771 375.152L217.747 356.919L228.175 339.76L239.151 318.846L251.774 300.614L262.201 286.672L272.08 272.193L287.447 253.425L298.424 241.091L307.205 228.758L318.73 218.033L331.353 206.772L343.976 194.438L357.696 181.032L379.1 164.945L395.016 148.858L420.262 130.625L438.373 116.683L455.935 104.35L477.339 88.2624L499.841 76.4651L527.83 61.9866L553.076 49.653L576.675 38.9282L600.275 29.8121L618.935 22.3047L638.692 15.8698L668.877 9.97114L686.988 5.68121L704.55 3H720.466Z"/>
</mask>
<path d="M720.466 3H732.54L809.924 5.68121L834.621 9.97114L853.281 14.2611L881.819 23.3772L909.26 32.4933L938.897 46.9718L977.314 66.2765L1025.06 98.451L1072.26 135.452L1105.74 169.235L1128.79 196.583L1144.16 215.352L1167.21 251.816L1185.87 283.991L1205.62 327.426L1219.89 359.601L1229.22 386.949L1234.71 401.427L1239.1 419.66L1244.04 434.674L1252.27 466.313L1265.44 522.618L1278.62 604.663L1295.08 716.737L1306.06 803.608L1312.09 860.45L1313.74 876.001L1315.39 891.016L1318.13 903.349L1320.88 915.147L1322.52 930.698L1324.72 944.104V958.046L1326.36 970.916L1328.01 983.249L1331.3 996.119L1332.95 1006.84L1336.24 1013.82V1020.25L1338.44 1031.51L1341.18 1048.67V1065.83L1343.38 1086.21L1346.12 1144.66L1348.87 1162.35L1351.61 1177.37V1191.85L1354.35 1200.43L1356 1207.93V1220.8V1307.68V1328.59V1345.21L1354.35 1360.23L1351.61 1374.17L1348.87 1386.5L1346.12 1396.69L1342.28 1409.56L1331.85 1434.76L1326.36 1450.85L1320.88 1465.87L1313.74 1479.81L1303.86 1493.75L1292.34 1506.62L1284.1 1521.64L1272.03 1535.58L1264.9 1545.23L1255.57 1553.81L1239.65 1564.54L1229.22 1573.65L1213.86 1581.69L1201.23 1590.27L1190.81 1596.71L1172.69 1599.39L1149.64 1602.07L1120.56 1596.71H1103.5L1087.5 1594.5L1079 1592.96H1066L1057.5 1590.27H1052L1044 1587.5L1034.94 1585.98L1026 1584.5L1017 1581.69L1010 1579L998.5 1577.5L988.291 1575.8L978.961 1581.69L969.631 1585.98L961.398 1592.96L953.715 1596.71L948.227 1602.07L933.409 1607.97L910.358 1619.77L898.284 1629.42L884.015 1635.32L864.806 1638H841.755H821.998H807.5L791.5 1635.32L775 1629L762.5 1626.2L747.5 1619.77L735.943 1612.8L726.613 1606.36L716.734 1597.78L704.111 1587.59L694.5 1583L686 1580.62H677H666.5L649.12 1581.69L639.241 1587.59L627.716 1592.96L607.409 1599.39L591.494 1604.75L570.09 1609.58H554.174H537.16H515.756H496.548L480.083 1604.75L462.521 1599.39L450.996 1596.71L434.531 1587.59L420.5 1578L412.5 1573.5L408 1571.51L401.602 1567.75L394.5 1564.54L391.5 1561.5L388 1559L381.844 1553.5L376.356 1548.98L370.5 1544L364 1540.4H351.659L338 1548.98L324.218 1564.54L315.437 1571.51L303.5 1581.69L278 1592.96L253 1596.71L239.5 1599.39H227.5L207.868 1604.75H190.855H165.609H146.949L129.936 1599.39L115.666 1596.71L101.946 1590.27L87.1277 1584.38L76.1513 1576.87L58.5891 1567.75L49.2592 1556.49L38.2828 1545.23L29.5016 1534.51L20.7205 1520.56L13.037 1506.08L7 1482.49V1461.58V1438.52V1418.68V1402.59V1390.26L13.037 1375.78L20.7205 1354.86L29.5016 1331.27L38.2828 1310.36L45.9662 1258.88L58.5891 1178.98L66.8214 1116.24L73.4072 1083.53V1058.86V1035.26L78.3466 977.351V947.857V929.625L83.286 894.233L88.7742 859.378L94.8112 813.261L99.7506 756.419L104.69 722.1L112.373 687.78L118.41 655.606L124.996 619.678L131.033 590.721L138.717 563.372L147.498 532.807L156.279 501.704L166.158 474.892L173.841 451.298L181.525 430.384L190.306 408.398L200.185 391.239L206.771 375.152L217.747 356.919L228.175 339.76L239.151 318.846L251.774 300.614L262.201 286.672L272.08 272.193L287.447 253.425L298.424 241.091L307.205 228.758L318.73 218.033L331.353 206.772L343.976 194.438L357.696 181.032L379.1 164.945L395.016 148.858L420.262 130.625L438.373 116.683L455.935 104.35L477.339 88.2624L499.841 76.4651L527.83 61.9866L553.076 49.653L576.675 38.9282L600.275 29.8121L618.935 22.3047L638.692 15.8698L668.877 9.97114L686.988 5.68121L704.55 3H720.466Z" fill="#F4F4F4"/>
<path d="M720.466 3H732.54L809.924 5.68121L834.621 9.97114L853.281 14.2611L881.819 23.3772L909.26 32.4933L938.897 46.9718L977.314 66.2765L1025.06 98.451L1072.26 135.452L1105.74 169.235L1128.79 196.583L1144.16 215.352L1167.21 251.816L1185.87 283.991L1205.62 327.426L1219.89 359.601L1229.22 386.949L1234.71 401.427L1239.1 419.66L1244.04 434.674L1252.27 466.313L1265.44 522.618L1278.62 604.663L1295.08 716.737L1306.06 803.608L1312.09 860.45L1313.74 876.001L1315.39 891.016L1318.13 903.349L1320.88 915.147L1322.52 930.698L1324.72 944.104V958.046L1326.36 970.916L1328.01 983.249L1331.3 996.119L1332.95 1006.84L1336.24 1013.82V1020.25L1338.44 1031.51L1341.18 1048.67V1065.83L1343.38 1086.21L1346.12 1144.66L1348.87 1162.35L1351.61 1177.37V1191.85L1354.35 1200.43L1356 1207.93V1220.8V1307.68V1328.59V1345.21L1354.35 1360.23L1351.61 1374.17L1348.87 1386.5L1346.12 1396.69L1342.28 1409.56L1331.85 1434.76L1326.36 1450.85L1320.88 1465.87L1313.74 1479.81L1303.86 1493.75L1292.34 1506.62L1284.1 1521.64L1272.03 1535.58L1264.9 1545.23L1255.57 1553.81L1239.65 1564.54L1229.22 1573.65L1213.86 1581.69L1201.23 1590.27L1190.81 1596.71L1172.69 1599.39L1149.64 1602.07L1120.56 1596.71H1103.5L1087.5 1594.5L1079 1592.96H1066L1057.5 1590.27H1052L1044 1587.5L1034.94 1585.98L1026 1584.5L1017 1581.69L1010 1579L998.5 1577.5L988.291 1575.8L978.961 1581.69L969.631 1585.98L961.398 1592.96L953.715 1596.71L948.227 1602.07L933.409 1607.97L910.358 1619.77L898.284 1629.42L884.015 1635.32L864.806 1638H841.755H821.998H807.5L791.5 1635.32L775 1629L762.5 1626.2L747.5 1619.77L735.943 1612.8L726.613 1606.36L716.734 1597.78L704.111 1587.59L694.5 1583L686 1580.62H677H666.5L649.12 1581.69L639.241 1587.59L627.716 1592.96L607.409 1599.39L591.494 1604.75L570.09 1609.58H554.174H537.16H515.756H496.548L480.083 1604.75L462.521 1599.39L450.996 1596.71L434.531 1587.59L420.5 1578L412.5 1573.5L408 1571.51L401.602 1567.75L394.5 1564.54L391.5 1561.5L388 1559L381.844 1553.5L376.356 1548.98L370.5 1544L364 1540.4H351.659L338 1548.98L324.218 1564.54L315.437 1571.51L303.5 1581.69L278 1592.96L253 1596.71L239.5 1599.39H227.5L207.868 1604.75H190.855H165.609H146.949L129.936 1599.39L115.666 1596.71L101.946 1590.27L87.1277 1584.38L76.1513 1576.87L58.5891 1567.75L49.2592 1556.49L38.2828 1545.23L29.5016 1534.51L20.7205 1520.56L13.037 1506.08L7 1482.49V1461.58V1438.52V1418.68V1402.59V1390.26L13.037 1375.78L20.7205 1354.86L29.5016 1331.27L38.2828 1310.36L45.9662 1258.88L58.5891 1178.98L66.8214 1116.24L73.4072 1083.53V1058.86V1035.26L78.3466 977.351V947.857V929.625L83.286 894.233L88.7742 859.378L94.8112 813.261L99.7506 756.419L104.69 722.1L112.373 687.78L118.41 655.606L124.996 619.678L131.033 590.721L138.717 563.372L147.498 532.807L156.279 501.704L166.158 474.892L173.841 451.298L181.525 430.384L190.306 408.398L200.185 391.239L206.771 375.152L217.747 356.919L228.175 339.76L239.151 318.846L251.774 300.614L262.201 286.672L272.08 272.193L287.447 253.425L298.424 241.091L307.205 228.758L318.73 218.033L331.353 206.772L343.976 194.438L357.696 181.032L379.1 164.945L395.016 148.858L420.262 130.625L438.373 116.683L455.935 104.35L477.339 88.2624L499.841 76.4651L527.83 61.9866L553.076 49.653L576.675 38.9282L600.275 29.8121L618.935 22.3047L638.692 15.8698L668.877 9.97114L686.988 5.68121L704.55 3H720.466Z" stroke="black" stroke-width="6" mask="url(#path-1-outside-1_78_140)"/>
</g>
<g filter="url(#filter1_d_78_140)">
<mask id="path-2-outside-2_78_140" maskUnits="userSpaceOnUse" x="64" y="53" width="1235" height="1531" fill="black">
<rect fill="white" x="64" y="53" width="1235" height="1531"/>
<path d="M717 56H728L798.5 58.5L821 62.5L838 66.5L864 75L889 83.5L916 97L951 115L994.5 145L1037.5 179.5L1068 211L1089 236.5L1103 254L1124 288L1141 318L1159 358.5L1172 388.5L1180.5 414L1185.5 427.5L1189.5 444.5L1194 458.5L1201.5 488L1213.5 540.5L1225.5 617L1240.5 721.5L1250.5 802.5L1256 855.5L1257.5 870L1259 884L1261.5 895.5L1264 906.5L1265.5 921L1267.5 933.5V946.5L1269 958.5L1270.5 970L1273.5 982L1275 992L1278 998.5V1004.5L1280 1015L1282.5 1031V1047L1284.5 1066L1287 1120.5L1289.5 1137L1292 1151V1164.5L1294.5 1172.5L1296 1179.5V1191.5V1272.5V1292V1307.5L1294.5 1321.5L1292 1334.5L1289.5 1346L1287 1355.5L1283.5 1367.5L1274 1391L1269 1406L1264 1420L1257.5 1433L1248.5 1446L1238 1458L1230.5 1472L1219.5 1485L1213 1494L1204.5 1502L1190 1512L1180.5 1520.5L1166.5 1528L1155 1536L1145.5 1542L1129 1544.5L1108 1547L1081.5 1542L1061.5 1538.5L1051.5 1536L1038 1532L1026 1522.5L1020.5 1518.5L1013 1515L1003.5 1510L996.5 1508.5H991H986.5L979.5 1512L970.5 1517L961 1522.5L952.5 1528L944 1532L936.5 1538.5L929.5 1542L924.5 1547L911 1552.5L890 1563.5L879 1572.5L866 1578L848.5 1580.5H827.5H809.5L794.5 1575.5L780.5 1569.5L768 1563.5L756 1557L743 1549.5L736.5 1542L728 1536L719 1528L707.5 1518.5L697 1512L691 1508.5H679L669.5 1515L652 1528L643 1533.5L632.5 1538.5L614 1544.5L599.5 1549.5L580 1554H565.5H550H530.5H513L498 1549.5L482 1544.5L471.5 1542L456.5 1533.5L444 1523.5L436 1518.5L426.5 1508.5L415 1497.5L408.5 1489.5L403.5 1484L389 1466.5L381 1463H373L364 1466.5L356 1471L348 1479L341 1484L332.5 1494L326.5 1502L318.5 1508.5L309.5 1518.5L301.5 1523.5L292 1530.5L280 1536L272 1542L259.5 1544.5L250 1549.5H234.5H211.5H194.5L179 1544.5L166 1542L153.5 1536L140 1530.5L130 1523.5L114 1515L105.5 1504.5L95.5 1494L87.5 1484L79.5 1471L72.5 1457.5L67 1435.5V1416V1394.5V1376V1361V1349.5L72.5 1336L79.5 1316.5L87.5 1294.5L95.5 1275L102.5 1227L114 1152.5L121.5 1094L127.5 1063.5V1040.5V1018.5L132 964.5V937V920L136.5 887L141.5 854.5L147 811.5L151.5 758.5L156 726.5L163 694.5L168.5 664.5L174.5 631L180 604L187 578.5L195 550L203 521L212 496L219 474L226 454.5L234 434L243 418L249 403L259 386L268.5 370L278.5 350.5L290 333.5L299.5 320.5L308.5 307L322.5 289.5L332.5 278L340.5 266.5L351 256.5L362.5 246L374 234.5L386.5 222L406 207L420.5 192L443.5 175L460 162L476 150.5L495.5 135.5L516 124.5L541.5 111L564.5 99.5L586 89.5L607.5 81L624.5 74L642.5 68L670 62.5L686.5 58.5L702.5 56H717Z"/>
</mask>
<path d="M717 56H728L798.5 58.5L821 62.5L838 66.5L864 75L889 83.5L916 97L951 115L994.5 145L1037.5 179.5L1068 211L1089 236.5L1103 254L1124 288L1141 318L1159 358.5L1172 388.5L1180.5 414L1185.5 427.5L1189.5 444.5L1194 458.5L1201.5 488L1213.5 540.5L1225.5 617L1240.5 721.5L1250.5 802.5L1256 855.5L1257.5 870L1259 884L1261.5 895.5L1264 906.5L1265.5 921L1267.5 933.5V946.5L1269 958.5L1270.5 970L1273.5 982L1275 992L1278 998.5V1004.5L1280 1015L1282.5 1031V1047L1284.5 1066L1287 1120.5L1289.5 1137L1292 1151V1164.5L1294.5 1172.5L1296 1179.5V1191.5V1272.5V1292V1307.5L1294.5 1321.5L1292 1334.5L1289.5 1346L1287 1355.5L1283.5 1367.5L1274 1391L1269 1406L1264 1420L1257.5 1433L1248.5 1446L1238 1458L1230.5 1472L1219.5 1485L1213 1494L1204.5 1502L1190 1512L1180.5 1520.5L1166.5 1528L1155 1536L1145.5 1542L1129 1544.5L1108 1547L1081.5 1542L1061.5 1538.5L1051.5 1536L1038 1532L1026 1522.5L1020.5 1518.5L1013 1515L1003.5 1510L996.5 1508.5H991H986.5L979.5 1512L970.5 1517L961 1522.5L952.5 1528L944 1532L936.5 1538.5L929.5 1542L924.5 1547L911 1552.5L890 1563.5L879 1572.5L866 1578L848.5 1580.5H827.5H809.5L794.5 1575.5L780.5 1569.5L768 1563.5L756 1557L743 1549.5L736.5 1542L728 1536L719 1528L707.5 1518.5L697 1512L691 1508.5H679L669.5 1515L652 1528L643 1533.5L632.5 1538.5L614 1544.5L599.5 1549.5L580 1554H565.5H550H530.5H513L498 1549.5L482 1544.5L471.5 1542L456.5 1533.5L444 1523.5L436 1518.5L426.5 1508.5L415 1497.5L408.5 1489.5L403.5 1484L389 1466.5L381 1463H373L364 1466.5L356 1471L348 1479L341 1484L332.5 1494L326.5 1502L318.5 1508.5L309.5 1518.5L301.5 1523.5L292 1530.5L280 1536L272 1542L259.5 1544.5L250 1549.5H234.5H211.5H194.5L179 1544.5L166 1542L153.5 1536L140 1530.5L130 1523.5L114 1515L105.5 1504.5L95.5 1494L87.5 1484L79.5 1471L72.5 1457.5L67 1435.5V1416V1394.5V1376V1361V1349.5L72.5 1336L79.5 1316.5L87.5 1294.5L95.5 1275L102.5 1227L114 1152.5L121.5 1094L127.5 1063.5V1040.5V1018.5L132 964.5V937V920L136.5 887L141.5 854.5L147 811.5L151.5 758.5L156 726.5L163 694.5L168.5 664.5L174.5 631L180 604L187 578.5L195 550L203 521L212 496L219 474L226 454.5L234 434L243 418L249 403L259 386L268.5 370L278.5 350.5L290 333.5L299.5 320.5L308.5 307L322.5 289.5L332.5 278L340.5 266.5L351 256.5L362.5 246L374 234.5L386.5 222L406 207L420.5 192L443.5 175L460 162L476 150.5L495.5 135.5L516 124.5L541.5 111L564.5 99.5L586 89.5L607.5 81L624.5 74L642.5 68L670 62.5L686.5 58.5L702.5 56H717Z" fill="#EEBBC3"/>
<path d="M717 56H728L798.5 58.5L821 62.5L838 66.5L864 75L889 83.5L916 97L951 115L994.5 145L1037.5 179.5L1068 211L1089 236.5L1103 254L1124 288L1141 318L1159 358.5L1172 388.5L1180.5 414L1185.5 427.5L1189.5 444.5L1194 458.5L1201.5 488L1213.5 540.5L1225.5 617L1240.5 721.5L1250.5 802.5L1256 855.5L1257.5 870L1259 884L1261.5 895.5L1264 906.5L1265.5 921L1267.5 933.5V946.5L1269 958.5L1270.5 970L1273.5 982L1275 992L1278 998.5V1004.5L1280 1015L1282.5 1031V1047L1284.5 1066L1287 1120.5L1289.5 1137L1292 1151V1164.5L1294.5 1172.5L1296 1179.5V1191.5V1272.5V1292V1307.5L1294.5 1321.5L1292 1334.5L1289.5 1346L1287 1355.5L1283.5 1367.5L1274 1391L1269 1406L1264 1420L1257.5 1433L1248.5 1446L1238 1458L1230.5 1472L1219.5 1485L1213 1494L1204.5 1502L1190 1512L1180.5 1520.5L1166.5 1528L1155 1536L1145.5 1542L1129 1544.5L1108 1547L1081.5 1542L1061.5 1538.5L1051.5 1536L1038 1532L1026 1522.5L1020.5 1518.5L1013 1515L1003.5 1510L996.5 1508.5H991H986.5L979.5 1512L970.5 1517L961 1522.5L952.5 1528L944 1532L936.5 1538.5L929.5 1542L924.5 1547L911 1552.5L890 1563.5L879 1572.5L866 1578L848.5 1580.5H827.5H809.5L794.5 1575.5L780.5 1569.5L768 1563.5L756 1557L743 1549.5L736.5 1542L728 1536L719 1528L707.5 1518.5L697 1512L691 1508.5H679L669.5 1515L652 1528L643 1533.5L632.5 1538.5L614 1544.5L599.5 1549.5L580 1554H565.5H550H530.5H513L498 1549.5L482 1544.5L471.5 1542L456.5 1533.5L444 1523.5L436 1518.5L426.5 1508.5L415 1497.5L408.5 1489.5L403.5 1484L389 1466.5L381 1463H373L364 1466.5L356 1471L348 1479L341 1484L332.5 1494L326.5 1502L318.5 1508.5L309.5 1518.5L301.5 1523.5L292 1530.5L280 1536L272 1542L259.5 1544.5L250 1549.5H234.5H211.5H194.5L179 1544.5L166 1542L153.5 1536L140 1530.5L130 1523.5L114 1515L105.5 1504.5L95.5 1494L87.5 1484L79.5 1471L72.5 1457.5L67 1435.5V1416V1394.5V1376V1361V1349.5L72.5 1336L79.5 1316.5L87.5 1294.5L95.5 1275L102.5 1227L114 1152.5L121.5 1094L127.5 1063.5V1040.5V1018.5L132 964.5V937V920L136.5 887L141.5 854.5L147 811.5L151.5 758.5L156 726.5L163 694.5L168.5 664.5L174.5 631L180 604L187 578.5L195 550L203 521L212 496L219 474L226 454.5L234 434L243 418L249 403L259 386L268.5 370L278.5 350.5L290 333.5L299.5 320.5L308.5 307L322.5 289.5L332.5 278L340.5 266.5L351 256.5L362.5 246L374 234.5L386.5 222L406 207L420.5 192L443.5 175L460 162L476 150.5L495.5 135.5L516 124.5L541.5 111L564.5 99.5L586 89.5L607.5 81L624.5 74L642.5 68L670 62.5L686.5 58.5L702.5 56H717Z" stroke="black" stroke-width="6" mask="url(#path-2-outside-2_78_140)"/>
</g>
<path d="M601 537C601 558.539 576.376 576 546 576C515.624 576 491 558.539 491 537C491 515.461 515.624 498 546 498C576.376 498 601 515.461 601 537Z" fill="#EA52A9" fill-opacity="0.26"/>
<path d="M1144 532C1144 553.539 1119.38 571 1089 571C1058.62 571 1034 553.539 1034 532C1034 510.461 1058.62 493 1089 493C1119.38 493 1144 510.461 1144 532Z" fill="#EA52A9" fill-opacity="0.24"/>
<g filter="url(#filter2_d_78_140)">
<path d="M629 410L731 448.5L691 454L654 469L642.5 478.5L632.5 488L629 497.5" stroke="black" stroke-width="8"/>
</g>
<g filter="url(#filter3_d_78_140)">
<path d="M1007 410L905 448.5L945 454L982 469L993.5 478.5L1003.5 488L1007 497.5" stroke="black" stroke-width="8"/>
</g>
<ellipse cx="833.5" cy="606" rx="40.5" ry="35" fill="black"/>
<defs>
<filter id="filter0_d_78_140" x="0" y="0" width="1363" height="1649" filterUnits="userSpaceOnUse" color-interpolation-filters="sRGB">
<feFlood flood-opacity="0" result="BackgroundImageFix"/>
<feColorMatrix in="SourceAlpha" type="matrix" values="0 0 0 0 0 0 0 0 0 0 0 0 0 0 0 0 0 0 127 0" result="hardAlpha"/>
<feOffset dy="4"/>
<feGaussianBlur stdDeviation="2"/>
<feComposite in2="hardAlpha" operator="out"/>
<feColorMatrix type="matrix" values="0 0 0 0 0 0 0 0 0 0 0 0 0 0 0 0 0 0 0.25 0"/>
<feBlend mode="normal" in2="BackgroundImageFix" result="effect1_dropShadow_78_140"/>
<feBlend mode="normal" in="SourceGraphic" in2="effect1_dropShadow_78_140" result="shape"/>
</filter>
<filter id="filter1_d_78_140" x="60" y="53" width="1243" height="1538.5" filterUnits="userSpaceOnUse" color-interpolation-filters="sRGB">
<feFlood flood-opacity="0" result="BackgroundImageFix"/>
<feColorMatrix in="SourceAlpha" type="matrix" values="0 0 0 0 0 0 0 0 0 0 0 0 0 0 0 0 0 0 127 0" result="hardAlpha"/>
<feOffset dy="4"/>
<feGaussianBlur stdDeviation="2"/>
<feComposite in2="hardAlpha" operator="out"/>
<feColorMatrix type="matrix" values="0 0 0 0 0 0 0 0 0 0 0 0 0 0 0 0 0 0 0.25 0"/>
<feBlend mode="normal" in2="BackgroundImageFix" result="effect1_dropShadow_78_140"/>
<feBlend mode="normal" in="SourceGraphic" in2="effect1_dropShadow_78_140" result="shape"/>
</filter>
<filter id="filter2_d_78_140" x="621.247" y="406.258" width="115.165" height="100.625" filterUnits="userSpaceOnUse" color-interpolation-filters="sRGB">
<feFlood flood-opacity="0" result="BackgroundImageFix"/>
<feColorMatrix in="SourceAlpha" type="matrix" values="0 0 0 0 0 0 0 0 0 0 0 0 0 0 0 0 0 0 127 0" result="hardAlpha"/>
<feOffset dy="4"/>
<feGaussianBlur stdDeviation="2"/>
<feComposite in2="hardAlpha" operator="out"/>
<feColorMatrix type="matrix" values="0 0 0 0 0 0 0 0 0 0 0 0 0 0 0 0 0 0 0.25 0"/>
<feBlend mode="normal" in2="BackgroundImageFix" result="effect1_dropShadow_78_140"/>
<feBlend mode="normal" in="SourceGraphic" in2="effect1_dropShadow_78_140" result="shape"/>
</filter>
<filter id="filter3_d_78_140" x="899.588" y="406.258" width="115.165" height="100.625" filterUnits="userSpaceOnUse" color-interpolation-filters="sRGB">
<feFlood flood-opacity="0" result="BackgroundImageFix"/>
<feColorMatrix in="SourceAlpha" type="matrix" values="0 0 0 0 0 0 0 0 0 0 0 0 0 0 0 0 0 0 127 0" result="hardAlpha"/>
<feOffset dy="4"/>
<feGaussianBlur stdDeviation="2"/>
<feComposite in2="hardAlpha" operator="out"/>
<feColorMatrix type="matrix" values="0 0 0 0 0 0 0 0 0 0 0 0 0 0 0 0 0 0 0.25 0"/>
<feBlend mode="normal" in2="BackgroundImageFix" result="effect1_dropShadow_78_140"/>
<feBlend mode="normal" in="SourceGraphic" in2="effect1_dropShadow_78_140" result="shape"/>
</filter>
</defs>
</svg>
